<?xml version="1.0" encoding="UTF-8"?><svg id="Layer_2" xmlns="http://www.w3.org/2000/svg" viewBox="0 0 275.51 74.2"><defs><style>.cls-1{stroke:#000;stroke-miterlimit:10;stroke-width:.66px;}</style></defs><g id="Layer_1-2"><path class="cls-1" d="m123.71,21.01h5.17l-13.8,32.18h-4.19l-13.8-32.18h5.17l10.73,26.16,10.73-26.16Z"/><path class="cls-1" d="m158.77,21.01h5.1v32.18h-4.91v-6.28c-1.9,4.51-6.21,7.06-11.9,7.06-7.85,0-12.69-6.15-12.69-14.52v-18.44h5.1v17.59c0,6.34,2.62,10.92,9.16,10.92,6.02,0,10.14-4.71,10.14-10.79v-17.73Z"/><path class="cls-1" d="m176.42,39.19c.79,6.67,5.23,10.86,11.97,10.86,5.04,0,8.89-2.42,10.79-5.49h4.84c-2.42,5.3-8.31,9.42-15.57,9.42-10.6,0-17.07-7.59-17.07-16.88s6.93-16.87,16.81-16.87,16.55,7.33,16.55,16.55v2.42h-28.32Zm-.07-3.92h23.61c-.52-6.41-4.78-11.25-11.71-11.25-6.41,0-11.25,4.45-11.9,11.25Z"/><path class="cls-1" d="m215.14,46.91c2.09,0,3.53,1.5,3.53,3.4s-1.44,3.4-3.53,3.4-3.53-1.5-3.53-3.4,1.44-3.4,3.53-3.4Z"/><path class="cls-1" d="m260.07,21.01v32.18h-4.91v-6.48c-1.96,3.6-6.93,7.26-13.47,7.26-9.88,0-16.48-7.98-16.48-16.88s6.61-16.87,16.48-16.87c6.54,0,11.64,3.6,13.41,7.33v-6.54h4.97Zm-17.53,28.78c6.21,0,12.43-4.58,12.43-12.69s-6.21-12.69-12.43-12.69c-7.46,0-12.23,5.82-12.23,12.69s4.77,12.69,12.23,12.69Z"/><path class="cls-1" d="m270.08,53.19V21.01h5.1v32.18h-5.1Z"/><path d="m32.75.25c-.69-.36-1.53-.33-2.2.07L2.35,17.06c-1.45.87-2.35,2.44-2.35,4.11v31.86c0,1.67.9,3.25,2.36,4.12l28.19,16.74c.35.21.76.32,1.16.32.36,0,.72-.08,1.04-.25.69-.35,1.12-1.03,1.12-1.77V2.02c0-.74-.43-1.41-1.12-1.77Zm-3.2,68.26l-24.86-14.77c-.21-.13-.36-.41-.36-.71v-6.7l25.22,13.74v8.43Zm0-26.27l-9.39-5.12,9.39-5.12v10.24Zm0-14.91l-14.76,8.05c-.66.36-1.07,1.02-1.07,1.74s.41,1.38,1.07,1.74l14.77,8.06v8.5l-25.22-13.74v-9.11l25.22-13.74v8.52Zm0-13.19L4.32,27.88v-6.71c0-.3.14-.59.36-.71L29.54,5.69v8.45Zm43.99,2.91L45.35.32c-.67-.4-1.51-.42-2.2-.07-.69.35-1.12,1.03-1.12,1.77v70.17c0,.74.43,1.41,1.12,1.77.33.17.68.25,1.04.25.4,0,.81-.11,1.16-.32l28.19-16.74c1.45-.86,2.36-2.44,2.36-4.11v-31.86c0-1.67-.9-3.25-2.36-4.12Zm-27.19,14.91l9.39,5.12-9.39,5.12v-10.24Zm25.22,21.07c0,.3-.14.59-.36.71l-24.87,14.77v-8.45l25.22-13.74v6.71Zm0-11.38l-25.22,13.74v-8.52l14.77-8.05c.66-.36,1.07-1.02,1.07-1.74s-.41-1.38-1.07-1.74l-14.77-8.06v-8.5l25.22,13.74v9.11Zm0-13.78l-25.22-13.74V5.69l24.86,14.76c.22.13.36.42.36.72v6.7Z"/></g></svg>